
<global>
amp_veltrack=0
ampeg_release=0.25
xf_cccurve=gain
xfin_hicc1=127
xfout_hicc1=127
xfout_locc1=127
</global>

<group>
group_label=PP
lpc_hicc1=42
lpc_locc1=0

<region>
hivel=127
key=a#1
loop_end=258730
loop_mode=loop_continuous
loop_start=84105
loop_xfade=21159
lovel=0
lpc=G61CQ8mTBcTREfpD0QGGw21ojUMDg4zDLNMQQ50CgsKUvGVCbXlwwfcMC8LA23jAVtDYQBKNOULnlFLCeQsAQmuuHcC9RY1A76eEwbaZMcBwkJJBsTHuwXWg1UFVkffA
lpc_rms=-27.14
sample=Bassoon_nonvib_PP_A#1.opus
</region>

<region>
hikey=a#2
hivel=127
lokey=a2
loop_end=255741
loop_mode=loop_continuous
loop_start=83133
loop_xfade=20915
lovel=0
lpc=IAWSQ2fjRMSuxT9EWQzow293yEOLm6XD9uJLQ1/QtMIoUxNCWyFxwqg9zUEiHYXBcFUcQjLrxEDo0jnCx07aQV2Q6UHll4zC4TWuQvANksKrCBpCz9wDwkL1DUITkW7B
lpc_rms=-24.60
pitch_keycenter=a#2
sample=Bassoon_nonvib_PP_A#2.opus
</region>

<region>
hikey=a#3
hivel=127
lokey=a3
loop_end=250933
loop_mode=loop_continuous
loop_start=81570
loop_xfade=20522
lovel=0
lpc=zbCEQ2VIJcSKExJErkCsw2I+rkM7TqfDMk1NQwpvgcKEFy1CKiKBwna3w0FN+dLBN6/bQXQAzEGZZ2TC1znNQSE3pkGq7Q7CN2VkQvQYOMKxTepBzNxPwn/vHkI3IAbB
lpc_rms=-24.97
pitch_keycenter=a#3
sample=Bassoon_nonvib_PP_A#3.opus
</region>

<region>
hikey=c2
hivel=127
lokey=b1
loop_end=257110
loop_mode=loop_continuous
loop_start=83578
loop_xfade=21027
lovel=0
lpc=IWZ8Q/dGPMSZxU5EK6sExC8L3EOan8PDFJhfQ5WOlcLeVddB3r9wwfexIMKMWwg/+UpHQmRIQ0Eq2MrBbcoHwr2RrUKOtqHCD7cCQnXsucGOXBFCDSImwnuUAULw+yLB
lpc_rms=-27.52
pitch_keycenter=c2
sample=Bassoon_nonvib_PP_C2.opus
</region>

<region>
hikey=c3
hivel=127
lokey=b2
loop_end=257329
loop_mode=loop_continuous
loop_start=83649
loop_xfade=21045
lovel=0
lpc=nWuLQ5kZPMR7MDBEcI2rw+xQVkM8YwnD3YiIQsrMPsJciitBRXtKQpRFg8IcSCbBfQCLQKFsVULTzH7B99Cfwb5090EgRmDCnIWOQqHeScJkCkpB8prLwZUfKEKUV4HB
lpc_rms=-24.11
pitch_keycenter=c3
sample=Bassoon_nonvib_PP_C3.opus
</region>

<region>
hikey=c4
hivel=127
lokey=b3
loop_end=261826
loop_mode=loop_continuous
loop_start=85111
loop_xfade=21413
lovel=0
lpc=vEyjQxy0TcRy5zREM5S1w6NBlEPb+qrDHGWZQ9MCJcPoZtJCdv+IwhwpqkF6wk3ClYWtQW5l6EFEAOLB0HHOwJxIVkJNo1zChQI9QjrA38FIo4ZBjJSjwu860kKTLhjC
lpc_rms=-22.90
pitch_keycenter=c4
sample=Bassoon_nonvib_PP_C4.opus
</region>

<region>
hikey=d2
hivel=127
lokey=c#2
loop_end=258341
loop_mode=loop_continuous
loop_start=83978
loop_xfade=21128
lovel=0
lpc=4SKuQ5NeZcR030xEyJvhwyj79EP8WvDDEs6EQy2TkMJwxBxCuvGhwWSM/8GK4PHB41HGQf4sB0LVfLnBL/UawrPBzUK3VVDC5XyGQOsUxMF9kR5CyENiwi8ZFUK+lqPA
lpc_rms=-24.87
pitch_keycenter=d2
sample=Bassoon_nonvib_PP_D2.opus
</region>

<region>
hikey=d3
hivel=127
lokey=c#3
loop_end=254929
loop_mode=loop_continuous
loop_start=82869
loop_xfade=20849
lovel=0
lpc=L2bNQ1CtjMSf6o9EvO0wxETI80NlZNLDclC6Q6mCRMOQsbRCRZJ3wuq3lcHBHM7B8AFFQpy4wD+3/fXB4jZBPrRR0kKh19bCi4pjQhZkEML/p03BzVzIQFi46UHwzW3B
lpc_rms=-22.59
pitch_keycenter=d3
sample=Bassoon_nonvib_PP_D3.opus
</region>

<region>
hikey=d4
hivel=127
lokey=c#4
loop_end=253175
loop_mode=loop_continuous
loop_start=82299
loop_xfade=20705
lovel=0
lpc=9vXbQtEyjcMSbXtDcfnkwiHLkUJaJI/CthlZQv4vWMExiYLA7J/ywPrzFUGOyCDBfFWOPrRdDUGKNdPAX1MNQbVqHEAkeETBMscOQeGu6j/UgmLBCUVIwcnQEUJVFnzB
lpc_rms=-30.01
pitch_keycenter=d4
sample=Bassoon_nonvib_PP_D4.opus
</region>

<region>
hikey=e2
hivel=127
lokey=d#2
loop_end=247751
loop_mode=loop_continuous
loop_start=80535
loop_xfade=20262
lovel=0
lpc=np7hQ8Jso8QFaqhEhIg/xPd9EkQAvPbDlgB6Q+skW8IXTQ5CJTtrwtje0cADb1rCy6WHQrBnXULeDYTCX/2gwW0b6ULlmOHCwrVoQmjjmMIiw6lCxiOLws/iSkIoI4LB
lpc_rms=-25.94
pitch_keycenter=e2
sample=Bassoon_nonvib_PP_E2.opus
</region>

<region>
hikey=e3
hivel=127
lokey=d#3
loop_end=256034
loop_mode=loop_continuous
loop_start=83228
loop_xfade=20939
lovel=0
lpc=Mc5dQ6DpCMTBgupDXPtywwT6YUPa3IbD63xgQ+vXpcI9Pv1BtAgWwt9YuMB3nZo/s0kaQqbSnMFm2//BUeQjQm2busFogbNBEJ96wMz4cMEovYDAg3kGQGU9LEH1JFvA
lpc_rms=-25.29
pitch_keycenter=e3
sample=Bassoon_nonvib_PP_E3.opus
</region>

<region>
hikey=e4
hivel=127
lokey=d#4
loop_end=249057
loop_mode=loop_continuous
loop_start=80960
loop_xfade=20368
lovel=0
lpc=AgFQQ0WvBMQ3Ae5DsG1mwxmIQkPEKXTD8TNVQywpuMIbbDxC2RymwuB59EFuIuVBqkwLQeYC6MGK/TVAxnHwwcAfnUKQlYPCGtYbQgbvGsKK1BxCTbgdwneJFEJtDmzB
lpc_rms=-24.54
pitch_keycenter=e4
sample=Bassoon_nonvib_PP_E4.opus
</region>

<region>
hikey=f#2
hivel=127
lokey=f2
loop_end=253321
loop_mode=loop_continuous
loop_start=82346
loop_xfade=20717
lovel=0
lpc=pi+GQ3OANsQmyDZEU7gFxNnmDkSyn+/DPv+KQ6uGI8OkNvJCeV+1wu8clUFjiUHApudGQMciCEIxx+fBDLqcQAzjWkDv37XBLahRQvbjUsKRuxRC9UHawVNB0UAE8W1A
lpc_rms=-25.25
pitch_keycenter=f#2
sample=Bassoon_nonvib_PP_F#2.opus
</region>

<region>
hikey=f#3
hivel=127
lokey=f3
loop_end=259032
loop_mode=loop_continuous
loop_start=84203
loop_xfade=21184
lovel=0
lpc=bl9uQ9ByFsTGzvVDSZFywwzAgUN79FrDP4gEQ2g3KsJE0AlBkIJBwoelvEG6cZjC8MXlQlh5HsIT9D1Cb+S/wkDGn0Lz2WbC1wBiQpSKXcIrRzRCN1y0QDYISsJslNdB
lpc_rms=-24.30
pitch_keycenter=f#3
sample=Bassoon_nonvib_PP_F#3.opus
</region>

<region>
hikey=f#4
hivel=127
lokey=f4
loop_end=255329
loop_mode=loop_continuous
loop_start=82999
loop_xfade=20881
lovel=0
lpc=FKg4Q9aEzsPeFYZDIrOvwh1/AEPkIBvDVjrsQmhyWcH5tFHBCw/IwFmIDMJwtmRBHU5iwAZC40FghxjBKbjkwamdJUJEC2jAmtJ1wX80T0H9SJLB8QimQcmiDcJ7ILtB
lpc_rms=-25.72
pitch_keycenter=f#4
sample=Bassoon_nonvib_PP_F#4.opus
</region>

<region>
hikey=g#2
hivel=127
lokey=g2
loop_end=247981
loop_mode=loop_continuous
loop_start=80610
loop_xfade=20280
lovel=0
lpc=rSrzQzVmuMQMM85EJw1/xLMnRkQfxkXE9jsBRAJhzMIAi2TCXymLwpgS70GsxoVCcrONwdgEH0IPXPrCryqQQsJ1rUInQLXCHxzXQDJvNcLheqlC5j8ZwhbxNsAg1KpA
lpc_rms=-23.69
pitch_keycenter=g#2
sample=Bassoon_nonvib_PP_G#2.opus
</region>

<region>
hikey=g#3
hivel=127
lokey=g3
loop_end=255835
loop_mode=loop_continuous
loop_start=83163
loop_xfade=20923
lovel=0
lpc=eDiAQ0joIMQy/wFE+Chgw+PMYkNrYnbDaB47QxDiPcIfWhLBhQ4SwpjH9b0/MiDBsZfkQXR5g0EraQXCBLWQQUEAW0FlxhXANzH6QP0DQsIczS5CGBaHwqCco0LkOu3B
lpc_rms=-24.03
pitch_keycenter=g#3
sample=Bassoon_nonvib_PP_G#3.opus
</region>

<region>
hikey=D5
hivel=127
lokey=g4
loop_end=248749
loop_mode=loop_continuous
loop_start=80860
loop_xfade=20343
lovel=0
lpc=eiUfQ6na2MO6ws9DaN1Uw0GSLEOMjyrDx868Ql6lgMF/nTdA/N2fwT3mhEGr+7HBIN9AQa3hlUCJrp7AWMcXwTIYMkJOzS/C5d4VQqTMPcJ7hZ5ByxQSQImKGkCOB6u/
lpc_rms=-28.68
pitch_keycenter=G#4
sample=Bassoon_nonvib_PP_G#4.opus
</region>
</group>

<group>
group_label=MF
lpc_hicc1=84
lpc_locc1=43

<region>
hivel=127
key=a#1
loop_end=264820
loop_mode=loop_continuous
loop_start=86084
loop_xfade=21657
lovel=0
lpc=MJFiQr11I8NVCTpDjMUAw110tEL864zCoQMzQiB+gcE8HRJBtqmRwJwKkcFOF7tBIciMwYYeh0GxqnbBBY6EQXcWd8ESIU9BNk2qwBfZfsDS+q9AMZcQwZOmN0HX7ZvA
lpc_rms=-25.23
sample=Bassoon_nonvib_MF_A#1.opus
</region>

<region>
hikey=a#2
hivel=127
lokey=a2
loop_end=253924
loop_mode=loop_continuous
loop_start=82542
loop_xfade=20766
lovel=0
lpc=4ksoQ0pN68O9ovpDGZ2sw6UzlUNKkW/DVn4LQ3AdgcKy6+5BRGc2wtjeHUIYMg3Chze2QT2X0EFmiOPBH4+bQf45NcGo3ZzBSUg+QXxWt0Abu1Q/nX9XwaRg30HB/oHB
lpc_rms=-21.29
pitch_keycenter=a#2
sample=Bassoon_nonvib_MF_A#2.opus
</region>

<region>
hikey=a#3
hivel=127
lokey=a3
loop_end=262222
loop_mode=loop_continuous
loop_start=85239
loop_xfade=21445
lovel=0
lpc=VeQ7QzrBAcRJvwREGWCZw6fGY0O4WlvDnQUJQwYaBcLM8wNCaHJMwqX/NUGNKEPCddWIQrOU8ED4fx3C0Q69QfaNekCfhNbBDn0gQk6jIsLOTOxB5R+EwoMIqUKGf/3B
lpc_rms=-20.75
pitch_keycenter=a#3
sample=Bassoon_nonvib_MF_A#3.opus
</region>

<region>
hikey=c2
hivel=127
lokey=b1
loop_end=259374
loop_mode=loop_continuous
loop_start=84314
loop_xfade=21212
lovel=0
lpc=EpjuQhZZrMOAErFDMSI9w4w+DEMSNfXCKS5UQsYNN8FhmsBA6qcVQO/TEcIL/SRCIYbfwQ2DWkKWOEPCnsP5PygmZUFGLDPBn/XUQGoXN8HGaNBBlHHAwb6uOUESekzA
lpc_rms=-23.32
pitch_keycenter=c2
sample=Bassoon_nonvib_MF_C2.opus
</region>

<region>
hikey=c3
hivel=127
lokey=b2
loop_end=256992
loop_mode=loop_continuous
loop_start=83539
loop_xfade=21017
lovel=0
lpc=NsJPQzhjGsQ8RC5EQ5nYw5h4ZkOcT73CU2mOv5AkSUErryxB5IfLQQ6Xg8JNT5NAE+7nQc/7t8FRACBCz3EdwiXwhELpOb/CurPRQk50wcLdfTlCGCPIwbUS8UFALUXB
lpc_rms=-20.60
pitch_keycenter=c3
sample=Bassoon_nonvib_MF_C3.opus
</region>

<region>
hikey=c4
hivel=127
lokey=b3
loop_end=260832
loop_mode=loop_continuous
loop_start=84788
loop_xfade=21331
lovel=0
lpc=6hmEQ3K9NMQSpiNEyLZpw/to00KOLrDCIJHAQWNuBEHOQVVBJesAwgP5DUEHnw/Cl50aQSZxS0Jq3evBU9j/wOT7NkI8wqbA2FrGwa/rjMHEB5rA5l/awF76V0IE4dXB
lpc_rms=-16.56
pitch_keycenter=c4
sample=Bassoon_nonvib_MF_C4.opus
</region>

<region>
hikey=d2
hivel=127
lokey=c#2
loop_end=265161
loop_mode=loop_continuous
loop_start=86195
loop_xfade=21685
lovel=0
lpc=9rSUQ9kMS8RIQEBECWPiw3kz60PpOs7DjFpPQwVYocInT/tBlcRywdWm1cHLQaBBSnoMwttKoEKzlWTCIKwOvz+wmkJoBaPCEnZtQnm0ysIL//VC3brxwvPatUJRvufB
lpc_rms=-18.29
pitch_keycenter=d2
sample=Bassoon_nonvib_MF_D2.opus
</region>

<region>
hikey=d3
hivel=127
lokey=c#3
loop_end=259139
loop_mode=loop_continuous
loop_start=84237
loop_xfade=21193
lovel=0
lpc=d7ByQyeAI8RxwRpEGRKPw9sbBEPrA6PCKYJsQq2H+T8NMH/CdyCfQorl0sLZHGpCF/k/QUB6G8IdVg5CTfwDwjkGhEJfPTDCoaG3QWuhEcLu1w1B5Uehwd+6QkKB4KvB
lpc_rms=-18.05
pitch_keycenter=d3
sample=Bassoon_nonvib_MF_D3.opus
</region>

<region>
hikey=d4
hivel=127
lokey=c#4
loop_end=263367
loop_mode=loop_continuous
loop_start=85612
loop_xfade=21539
lovel=0
lpc=TPWQQvpFU8OvvG5DwZIUw6rqlkJYeTTCzl8bQtFkzcExAhZBNyDAP0YukcELRLZAJOFRQb68rsDZgRE/uWEEPoLBu8BD1+xAnnmOwE7/OkFR8JDBf/G+QJWkSEAH7Ea/
lpc_rms=-23.98
pitch_keycenter=d4
sample=Bassoon_nonvib_MF_D4.opus
</region>

<region>
hikey=e2
hivel=127
lokey=d#2
loop_end=258609
loop_mode=loop_continuous
loop_start=84065
loop_xfade=21150
lovel=0
lpc=AbRRQ3QbE8RQ+RVEZMPIw00Q0kOeJcDDZtNgQ0Dj9sId+YNCzZAlwlp7Bj5Rr+BBq3KTwSogIkKAMDLCU7KxQJqjB0JThwvC7l82wGeXDMBiaCtCi4IVwmzLr0DCezdA
lpc_rms=-19.72
pitch_keycenter=e2
sample=Bassoon_nonvib_MF_E2.opus
</region>

<region>
hikey=e3
hivel=127
lokey=d#3
loop_end=256706
loop_mode=loop_continuous
loop_start=83446
loop_xfade=20994
lovel=0
lpc=s0AOQ8ObxsNl385DVfdkw4y1AEM6uwnD20oGQ+L0CsIjH8zB1QTGwFBUHUDnrpZBf8xSwRB5XUA7ypvAvyVqvwI8b0Gl4zXA2lSUvvShicH1juBB5DviwU6uTUEiP0a/
lpc_rms=-22.21
pitch_keycenter=e3
sample=Bassoon_nonvib_MF_E3.opus
</region>

<region>
hikey=e4
hivel=127
lokey=d#4
loop_end=258927
loop_mode=loop_continuous
loop_start=84168
loop_xfade=21176
lovel=0
lpc=zIbcQq+imsN9vZRDtN7nwufThUIbYcfC18SXQi9uDcEOXgPC544SQT5HqUDfgMY/NqAYQhdpZ8JpFfJA2LGdQcNHukA+o0fBXVGDwGNFhUEdJ/jBW3gdQvqo28GMvwpB
lpc_rms=-20.49
pitch_keycenter=e4
sample=Bassoon_nonvib_MF_E4.opus
</region>

<region>
hikey=f#2
hivel=127
lokey=f2
loop_end=258105
loop_mode=loop_continuous
loop_start=83901
loop_xfade=21108
lovel=0
lpc=hu8uQ9yl/8N/TxBEhCzlw26j40NmDLHDD8M1Q7OSAMOUw91CnGOdwhbYH0IKm2HBTxUewEAT9UFtsw7CUBXkQaDG88FpH69BmrFWwHPyacGqc9hBqM7BwUegGUGJRTm/
lpc_rms=-20.25
pitch_keycenter=f#2
sample=Bassoon_nonvib_MF_F#2.opus
</region>

<region>
hikey=f#3
hivel=127
lokey=f3
loop_end=263441
loop_mode=loop_continuous
loop_start=85636
loop_xfade=21545
lovel=0
lpc=xyOJQ5frPsRs/zNE18K0w2t7xUOupvnDPFK2Q4UVEsNZ7JdCC7IKw/TPv0LhtsTCgldSQ4xWPcMbOqBCRT+QwvH190IpGL3Cund/QgkDvsLTwrVCvMN+wrYWLEKsDWHB
lpc_rms=-16.39
pitch_keycenter=f#3
sample=Bassoon_nonvib_MF_F#3.opus
</region>

<region>
hikey=f#4
hivel=127
lokey=f4
loop_end=259968
loop_mode=loop_continuous
loop_start=84507
loop_xfade=21261
lovel=0
lpc=YzgoQwnC8sPWx+tD2MlQw0K/NkNpFXPD5XIfQ4XIAcKx/p1BwomLwv6577/1MJ5CKCZXwqO2tUGOUeTBL0XoQcRoI0JmmorCYxeTQH51EEGbHM9ALt5fQTOeosGU/NVA
lpc_rms=-17.96
pitch_keycenter=f#4
sample=Bassoon_nonvib_MF_F#4.opus
</region>

<region>
hikey=g#2
hivel=127
lokey=g2
loop_end=257153
loop_mode=loop_continuous
loop_start=83592
loop_xfade=21030
lovel=0
lpc=ggGSQ+e0acQ4y5REqohhxBftKkR9MBbEWoLgQ9J6asNPkAFDaJY0w+oVA0NTszfCvJ52QsYm/0GqtBXD5ceYQhkThkH5NhVCuzTjwkcQtkLHkyfCp1YtQjTTJcLWzF9B
lpc_rms=-16.93
pitch_keycenter=g#2
sample=Bassoon_nonvib_MF_G#2.opus
</region>

<region>
hikey=g#3
hivel=127
lokey=g3
loop_end=252868
loop_mode=loop_continuous
loop_start=82199
loop_xfade=20680
lovel=0
lpc=i00eQ4J648OjMuRDcH1ow6iHVEMdPXzD8Mj7QnJtI0KFga/C+00JQoOyO8FOaqE/++IxQiKiOsLJZydB7W2+wdU6k0J3OSPCKJAZwt0ve0GpyyRCQ6vIwQY6v8CqIr5A
lpc_rms=-18.78
pitch_keycenter=g#3
sample=Bassoon_nonvib_MF_G#3.opus
</region>

<region>
hikey=D5
hivel=127
lokey=g4
loop_end=258525
loop_mode=loop_continuous
loop_start=84038
loop_xfade=21143
lovel=0
lpc=R9SWQnNZTcNSJThDmGqawiIQrkLOY8HCsm6bQYDmB0KwnEjCpWJpQn2zrMFDU8TBIASaQWgAuMGkiG5CakyEwu8JY0KABhrCyBEUQW6BtcG1WAxCAYqWvclaksE9sNNA
lpc_rms=-21.88
pitch_keycenter=G#4
sample=Bassoon_nonvib_MF_G#4.opus
</region>
</group>

<group>
group_label=FF
lpc_hicc1=127
lpc_locc1=85

<region>
hivel=127
key=a#1
loop_end=264154
loop_mode=loop_continuous
loop_start=85868
loop_xfade=21603
lovel=0
lpc=+RotQhKT68ITLwFDrKfKwkQRwEL9zcDCE8+uQklKg8LHEUdCNRomwsmDzUHlFHXB5TnoQJN8GkCb19jABeCVQMZ8gkCR07nATPa2Pl5Crz8WFYg+XAK4wAQGCkH+amzA
lpc_rms=-19.28
sample=Bassoon_nonvib_FF_A#1.opus
</region>

<region>
hikey=a#2
hivel=127
lokey=a2
loop_end=261759
loop_mode=loop_continuous
loop_start=85089
loop_xfade=21407
lovel=0
lpc=ZpupQnP0bMPHTIJDQmpBww65MEOeLRXDYUepQsy7DcI34qxBgabPwV7bsEEnmRPCv1tsQnnuAsLBw0LB+y2IQaK/lb+O7Ha+I/seQb+x38FlR+NBqO7RwWHuv0Fr0hHB
lpc_rms=-15.47
pitch_keycenter=a#2
sample=Bassoon_nonvib_FF_A#2.opus
</region>

<region>
hikey=a#3
hivel=127
lokey=a3
loop_end=263603
loop_mode=loop_continuous
loop_start=85688
loop_xfade=21558
lovel=0
lpc=zLLIQh5HhMNXN4ZDkkM3wxkSI0MFuQ3Da4K8QjgFPcKD+9FBnDKawWsPJDsy6oPBbp05QpiK1MEPFfDA9XY1QUOpnT88hIa/RtHAv48ByEDMCKjAnX+KweCQq0GikpTA
lpc_rms=-14.25
pitch_keycenter=a#3
sample=Bassoon_nonvib_FF_A#3.opus
</region>

<region>
hikey=c2
hivel=127
lokey=b1
loop_end=263864
loop_mode=loop_continuous
loop_start=85773
loop_xfade=21579
lovel=0
lpc=RLi/Qu+0hsNO9I5D6g5Dw++sL0MpnxXDIY2tQqDIHMJ5wGlBC+g5P4eD28FKqqRBoqsfwJZ/CEK1OlzCNBATQsuojcGJr6xBZ6IZwjmOrUG3TT1BZn2KwQz1LEFg1o/A
lpc_rms=-16.52
pitch_keycenter=c2
sample=Bassoon_nonvib_FF_C2.opus
</region>

<region>
hikey=c3
hivel=127
lokey=b2
loop_end=260147
loop_mode=loop_continuous
loop_start=84565
loop_xfade=21275
lovel=0
lpc=30cXQ4b928M3vPBDxeKcwwrPc0PNAD3DprLxQvvmt8KcLPlBJ8gMQo2FhMIKxWRCRrc7wg33nUIHNojCvkZzQeZhL0GRK1PCZSykQg7YN8Ju3FdBE0yvwW+i20ESFzTB
lpc_rms=-13.99
pitch_keycenter=c3
sample=Bassoon_nonvib_FF_C3.opus
</region>

<region>
hikey=c4
hivel=127
lokey=b3
loop_end=263019
loop_mode=loop_continuous
loop_start=85499
loop_xfade=21510
lovel=0
lpc=x86CQ9OmN8R8XjhEzILIw9KQnEN+G5XDkthKQ11XA8PzTrNCawEUwn6HHUC6RZrCFPCnQj/clUIpIyPDOLHkQvB6McLB+pxBMreTvsiFKsLr/RNCQPydwM4W+UAaafvA
lpc_rms=-9.76
pitch_keycenter=c4
sample=Bassoon_nonvib_FF_C4.opus
</region>

<region>
hikey=d2
hivel=127
lokey=c#2
loop_end=266991
loop_mode=loop_continuous
loop_start=86790
loop_xfade=21835
lovel=0
lpc=SYlXQ3MMDsQN9wJEwfCUw4xPhUPYal7DbMEYQ0aYk8IYV9NAGB1awfJaa0ERfH3BsFSDwVviTEJcaQbCjvwwwQ7Am0L2RWPCxAUcQdxtXMIsi6NC/MZvwjmuGEJQ1FLB
lpc_rms=-13.67
pitch_keycenter=d2
sample=Bassoon_nonvib_FF_D2.opus
</region>

<region>
hikey=d3
hivel=127
lokey=c#3
loop_end=257657
loop_mode=loop_continuous
loop_start=83756
loop_xfade=21072
lovel=0
lpc=m30aQ6QW58PucQlEBjPBwzQEd0NOuCXDGLDUQm7jI8JgmsjBuZIgQvjSFMKABrJB3PIxQXTWlcARPxXAijhMwoBzukK7soXCFc6iQWkvGj71IYe/pz6pwHukJEHop4/A
lpc_rms=-14.05
pitch_keycenter=d3
sample=Bassoon_nonvib_FF_D3.opus
</region>

<region>
hikey=d4
hivel=127
lokey=c#4
loop_end=262469
loop_mode=loop_continuous
loop_start=85320
loop_xfade=21465
lovel=0
lpc=ettCQtx2D8Mk5ytDXw/5wlxkn0IUw37CqzCCQpSiX8KJBk5CFlVqwh4hREILjxrCKx3aQc7uq8A1UvnAydFVQSI6h8HPuaNBTmOlwZkCREGNbxjBagd0QUMlSsH7RW1A
lpc_rms=-15.97
pitch_keycenter=d4
sample=Bassoon_nonvib_FF_D4.opus
</region>

<region>
hikey=e2
hivel=127
lokey=d#2
loop_end=266755
loop_mode=loop_continuous
loop_start=86713
loop_xfade=21816
lovel=0
lpc=dBbnQlr4n8PDMqhD5+dgw+5ROEM81RrDpk/TQjujOMKdE9hAJteVP/Jp3cEzcLxB4Gqav9Wcb0F7JCnBxDyeweYkFULvpEjBcrnwwQf19kFsnijBwUqPQO5Ttb4a5+O/
lpc_rms=-15.43
pitch_keycenter=e2
sample=Bassoon_nonvib_FF_E2.opus
</region>

<region>
hikey=e3
hivel=127
lokey=d#3
loop_end=262742
loop_mode=loop_continuous
loop_start=85409
loop_xfade=21487
lovel=0
lpc=/T72QhAcrcPR1btDeLl0w1xZJkN/EA/DjGgUQ8FM6sLlpl5C6YUhwtgYEEIDdBzCyNFLQoVZcsED7gXCLj3BQS7cgUHfB67Bq2TpQM2SwcDqerpARky+wEj7D0H8ZJXA
lpc_rms=-15.61
pitch_keycenter=e3
sample=Bassoon_nonvib_FF_E3.opus
</region>

<region>
hikey=e4
hivel=127
lokey=d#4
loop_end=264983
loop_mode=loop_continuous
loop_start=86137
loop_xfade=21671
lovel=0
lpc=972/QkpzgsMcO3lDPH7awlDwpkKf6frCLx7nQgFxjcJ8N19CmixawrB8bUH+UuxAsT17QZa8jcGw20xAtg99wURVA0Jgow3B0VCWwaLLNz81csxBnuehwQEDpEDO9eU+
lpc_rms=-13.95
pitch_keycenter=e4
sample=Bassoon_nonvib_FF_E4.opus
</region>

<region>
hikey=f#2
hivel=127
lokey=f2
loop_end=267750
loop_mode=loop_continuous
loop_start=87036
loop_xfade=21897
lovel=0
lpc=puXXQvM2l8OSFK9DFkmUw9nxi0O+wHPD/PUqQ6JG0MJdAppCKBNpwm8f1kE5oF/BhPuFQQufrsGjp15BD3p0wCUhAEGNZgPAPI62wBC5hb+HvU5AKLmMQIoAvMCuys8/
lpc_rms=-15.05
pitch_keycenter=f#2
sample=Bassoon_nonvib_FF_F#2.opus
</region>

<region>
hikey=f#3
hivel=127
lokey=f3
loop_end=265587
loop_mode=loop_continuous
loop_start=86333
loop_xfade=21720
lovel=0
lpc=AZsJQ1RFr8OelJlDo+FAwyv2e0Na4njD9ugdQzIJtsKADlpC0Q15wnxLRkKizgHCxGReQuVhTMLtjQ9C4W9fwjbkYUJtKcjBYlfyQf3Ka8KpaDlCo2WbwQBYRkHwnrjA
lpc_rms=-11.75
pitch_keycenter=f#3
sample=Bassoon_nonvib_FF_F#3.opus
</region>

<region>
hikey=f#4
hivel=127
lokey=f4
loop_end=267613
loop_mode=loop_continuous
loop_start=86992
loop_xfade=21886
lovel=0
lpc=PEsRQ4vJzMN3v7tDEAwSwyFnFUP8kUvDEZ0BQ5+JecKNWxpCQXTPwRwPur+oR0RBhbPBQbeaKcJI1JpB/pIDwoiDi0KIyTjCCSZhQbjfw8H2qolB3dSJQeIE2cE+BSVB
lpc_rms=-13.73
pitch_keycenter=f#4
sample=Bassoon_nonvib_FF_F#4.opus
</region>

<region>
hikey=g#2
hivel=127
lokey=g2
loop_end=264487
loop_mode=loop_continuous
loop_start=85976
loop_xfade=21630
lovel=0
lpc=dLobQyQo5sOS4QlEbdzTw3lJpkPpCpDDpBNjQ6zN58J6QIFC23bMwgkJnEKu1DzC3/F2QgdRscHNFR/CIkVmQmx9ZsJOQ2dC5S03wngIVEFdmqdBCpxMwYyhNMGtsQdB
lpc_rms=-12.63
pitch_keycenter=g#2
sample=Bassoon_nonvib_FF_G#2.opus
</region>

<region>
hikey=g#3
hivel=127
lokey=g3
loop_end=257120
loop_mode=loop_continuous
loop_start=83581
loop_xfade=21028
lovel=0
lpc=UMz/QgFUsMM/fKpDtktGw0g+TUMEJVDDuAARQ7BJksIfhL9BT4oHwucxUb9QTGBBF3wWQqaugEFZr6XCPygxQgLbekAmDArBicKQwRyfAUFO6DlCkOxMwmvNbUHLHWU+
lpc_rms=-13.30
pitch_keycenter=g#3
sample=Bassoon_nonvib_FF_G#3.opus
</region>

<region>
hikey=D5
hivel=127
lokey=g4
loop_end=262540
loop_mode=loop_continuous
loop_start=85343
loop_xfade=21471
lovel=0
lpc=VKmZQp38U8M8rltDMIULw4bE0EKef5fCrq1jQvtdG8Il0cw/+vJuP1IM3r9VRGxBACs4waIDEkIFUDHC9OwkQEfj+UACnzhAirQUQV8ansHDkDFBg2GoQJ2PKMGKa45A
lpc_rms=-15.08
pitch_keycenter=G#4
sample=Bassoon_nonvib_FF_G#4.opus
</region>
</group>